<?xml version="1.0" encoding="UTF-8" standalone="no"?>
<!-- Created with Inkscape (http://www.inkscape.org/) -->

<svg
   width="512"
   height="512"
   viewBox="0 0 512 512"
   version="1.1"
   id="svg1"
   inkscape:version="1.4.2 (f4327f4, 2025-05-13)"
   sodipodi:docname="stardancer.svg"
   xmlns:inkscape="http://www.inkscape.org/namespaces/inkscape"
   xmlns:sodipodi="http://sodipodi.sourceforge.net/DTD/sodipodi-0.dtd"
   xmlns:xlink="http://www.w3.org/1999/xlink"
   xmlns="http://www.w3.org/2000/svg"
   xmlns:svg="http://www.w3.org/2000/svg">
  <sodipodi:namedview
     id="namedview1"
     pagecolor="#000000"
     bordercolor="#000000"
     borderopacity="0.25"
     inkscape:showpageshadow="2"
     inkscape:pageopacity="0.0"
     inkscape:pagecheckerboard="0"
     inkscape:deskcolor="#212121"
     inkscape:document-units="px"
     inkscape:zoom="4"
     inkscape:cx="235.125"
     inkscape:cy="91.375"
     inkscape:window-width="1920"
     inkscape:window-height="1057"
     inkscape:window-x="-8"
     inkscape:window-y="-8"
     inkscape:window-maximized="1"
     inkscape:current-layer="g1" />
  <defs
     id="defs1">
    <inkscape:path-effect
       effect="powerstroke"
       message=""
       id="path-effect29"
       is_visible="true"
       lpeversion="1.3"
       scale_width="1"
       interpolator_type="CentripetalCatmullRom"
       interpolator_beta="0.2"
       start_linecap_type="zerowidth"
       end_linecap_type="zerowidth"
       offset_points="0.24988945,0.11983339 | 0.5,0.5 | 0.8,0.5"
       linejoin_type="round"
       miter_limit="4"
       not_jump="false"
       sort_points="true" />
    <linearGradient
       id="swatch23"
       inkscape:swatch="solid">
      <stop
         style="stop-color:#ffb52f;stop-opacity:1;"
         offset="0"
         id="stop23" />
    </linearGradient>
    <linearGradient
       id="swatch22"
       inkscape:swatch="solid">
      <stop
         style="stop-color:#000000;stop-opacity:1;"
         offset="0"
         id="stop22" />
    </linearGradient>
    <inkscape:path-effect
       effect="fill_between_many"
       method="bsplinespiro"
       autoreverse="false"
       close="false"
       join="false"
       linkedpaths="#path22,0,1"
       id="path-effect30" />
  </defs>
  <g
     id="g1"
     inkscape:label="balloon1">
    <path
       style="fill:none;stroke:#ffb52f;stroke-linecap:round;stroke-miterlimit:1;stroke-opacity:1"
       d="m 250.01953,99.9 c -9.54594,19.09188 0,49.99453 0,49.99453 0,0 9.36916,26.66548 0,50"
       id="path13"
       inkscape:label="string"
       sodipodi:nodetypes="ccc" />
    <path
       style="fill:#ff008d;fill-opacity:1;stroke-opacity:1;stroke:none;stroke-dasharray:none;stroke-dashoffset:0"
       d="m 249.96725,0 c -57.62609,0 -32.93121,100 0,100 z"
       id="path1"
       sodipodi:nodetypes="ccc"
       inkscape:label="left_side" />
    <use
       x="0"
       y="0"
       xlink:href="#path1"
       id="use1"
       transform="matrix(-1,0,0,1,499.90096,0)"
       inkscape:label="right_side" />
  </g>
  <g
     id="g22"
     inkscape:label="sparkle">
    <path
       d="m 207.25,156.5 c 0,0 0.43805,-13.75 -13.75,-13.75"
       id="path30"
       style="fill:none"
       inkscape:original-d="M 0,0"
       inkscape:path-effect="#path-effect30" />
    <path
       style="fill:#ffb52f;fill-opacity:1;fill-rule:nonzero;stroke:none;stroke-linecap:round;stroke-miterlimit:1;stroke-dasharray:none;stroke-dashoffset:0;stroke-opacity:1"
       d="m 207.25,156.5 c 0.007,2.3e-4 0.0268,-0.0623 0.0322,-0.45832 0.006,-0.43125 -0.0117,-0.98085 -0.0665,-1.70502 -0.0952,-1.25606 -0.2482,-3.08344 -1.07011,-4.92951 -0.38315,-0.86059 -0.90746,-1.78348 -1.62519,-2.66659 -0.71642,-0.8815 -1.57717,-1.66335 -2.58571,-2.29787 -0.43261,-0.27217 -0.87938,-0.50897 -1.33566,-0.7113 -0.69015,-0.30604 -1.47393,-0.55511 -2.33956,-0.731 -1.89694,-0.38543 -3.65614,-0.31519 -4.75944,-0.25039 1.12479,0.0661 2.82149,0.29709 4.56924,0.93125 0.79362,0.28796 1.47652,0.61254 2.08818,0.94736 0.40275,0.22046 0.79488,0.46097 1.17596,0.72557 0.88706,0.61591 1.65251,1.31975 2.31739,2.10643 0.66642,0.78851 1.18528,1.60568 1.5947,2.38224 0.87295,1.65573 1.47632,3.28479 1.7325,4.52535 0.13875,0.67251 0.20144,1.28073 0.23186,1.67576 0.0303,0.39302 0.0257,0.45558 0.0402,0.45604 z"
       id="path22"
       inkscape:linked-fill="path30"
       sodipodi:nodetypes="cc"
       inkscape:original-d="m 207.25,156.5 c 0,0 0.43805,-13.75 -13.75,-13.75"
       inkscape:path-effect="#path-effect29" />
  </g>
</svg>
